<?xml version="1.0" standalone="no"?>
<!DOCTYPE svg PUBLIC "-//W3C//DTD SVG 1.1//EN"
  "http://www.w3.org/Graphics/SVG/1.1/DTD/svg11.dtd">
<svg width="91.69999849796295mm" height="28.69999885559082mm" viewBox="-89.5999984741211 -44.849998474121094 91.69999849796295 28.69999885559082" xmlns="http://www.w3.org/2000/svg" version="1.1">
	<title>svgOutput</title>
	<desc>made with tinkercad</desc>
<path d="M 1.0399999618530273 -31.80900001525879 L 1.100000023841858 -30.5 L 1.0399999618530273 -29.19099998474121 L 0.8619999885559082 -27.895999908447266 L 0.5669999718666077 -26.625 L 0.15800000727176666 -25.391000747680664 L 0 -25.030553817749023 L -0.3610000014305115 -24.207000732421875 L -0.4725871980190277 -24.006000518798828 L -0.9850000143051147 -23.08300018310547 L -1.7079999446868896 -22.0310001373291 L -2.5239999294281006 -21.059999465942383 L -3.4230000972747803 -20.18000030517578 L -4.39900016784668 -19.399999618530273 L -5.440000057220459 -18.72599983215332 L -6.538000106811523 -18.166000366210938 L -7.681000232696533 -17.725000381469727 L -8.192000389099121 -17.587055206298828 L -8.859000205993652 -17.406999588012695 L -10.0600004196167 -17.214000701904297 L -11.272000312805176 -17.149999618530273 L -17.766000747680664 -17.149999618530273 L -17.774999618530273 -17.149999618530273 L -63.85499954223633 -17.149999618530273 L -65.53600311279297 -17.149999618530273 L -76.22799682617188 -17.149999618530273 L -77.44000244140625 -17.214000701904297 L -78.64099884033203 -17.406999588012695 L -79.81900024414062 -17.725000381469727 L -80.96199798583984 -18.166000366210938 L -81.91999816894531 -18.654598236083984 L -82.05999755859375 -18.72599983215332 L -83.10099792480469 -19.399999618530273 L -84.0770034790039 -20.18000030517578 L -84.97599792480469 -21.059999465942383 L -85.79199981689453 -22.0310001373291 L -86.51499938964844 -23.08300018310547 L -87.13899993896484 -24.207000732421875 L -87.65799713134766 -25.391000747680664 L -88.06700134277344 -26.625 L -88.36199951171875 -27.895999908447266 L -88.54000091552734 -29.19099998474121 L -88.5999984741211 -30.5 L -88.54000091552734 -31.80900001525879 L -88.4081802368164 -32.768001556396484 L -88.36199951171875 -33.104000091552734 L -88.06700134277344 -34.375 L -87.65799713134766 -35.60900115966797 L -87.13899993896484 -36.792999267578125 L -86.51499938964844 -37.91699981689453 L -85.79199981689453 -38.96900177001953 L -84.97599792480469 -39.939998626708984 L -84.0770034790039 -40.81999969482422 L -83.10099792480469 -41.599998474121094 L -82.05999755859375 -42.27399826049805 L -81.91999816894531 -42.345401763916016 L -80.96199798583984 -42.83399963378906 L -79.81900024414062 -43.275001525878906 L -78.64099884033203 -43.59299850463867 L -77.44000244140625 -43.7859992980957 L -76.22799682617188 -43.849998474121094 L -75.41326141357422 -43.849998474121094 L -74.76602935791016 -43.849998474121094 L -74.12630462646484 -43.849998474121094 L -73.4850845336914 -43.849998474121094 L -72.82914733886719 -43.849998474121094 L -72.16649627685547 -43.849998474121094 L -71.47786712646484 -43.849998474121094 L -70.76082611083984 -43.849998474121094 L -70.0231704711914 -43.849998474121094 L -69.2337646484375 -43.849998474121094 L -65.53600311279297 -43.849998474121094 L -63.85499954223633 -43.849998474121094 L -17.774999618530273 -43.849998474121094 L -17.766000747680664 -43.849998474121094 L -11.272000312805176 -43.849998474121094 L -10.0600004196167 -43.7859992980957 L -8.859000205993652 -43.59299850463867 L -8.192000389099121 -43.41294479370117 L -7.681000232696533 -43.275001525878906 L -6.538000106811523 -42.83399963378906 L -5.440000057220459 -42.27399826049805 L -4.7779998779296875 -41.84538650512695 L -4.39900016784668 -41.599998474121094 L -3.4230000972747803 -40.81999969482422 L -2.5239999294281006 -39.939998626708984 L -1.7079999446868896 -38.96900177001953 L -0.9850000143051147 -37.91699981689453 L -0.3610000014305115 -36.792999267578125 L 0 -35.96944808959961 L 0.15800000727176666 -35.60900115966797 L 0.5669999718666077 -34.375 L 0.8619999885559082 -33.104000091552734 L 0.9081838130950928 -32.768001556396484 L 1.0399999618530273 -31.80900001525879 M -4.778054237365723 -30.21824836730957 L -4.7779998779296875 -30.218849182128906 L -4.776000022888184 -30.240949630737305 L -4.775000095367432 -30.25200080871582 L -4.775155067443848 -30.266483306884766 L -4.775000095367432 -30.268321990966797 L -4.77400016784668 -30.280160903930664 L -4.7729997634887695 -30.29199981689453 L -4.773766994476318 -30.33372688293457 L -4.7729997634887695 -30.34433364868164 L -4.770999908447266 -30.371999740600586 L -4.7718119621276855 -30.39846420288086 L -4.770999908447266 -30.410999298095703 L -4.771520137786865 -30.425765991210938 L -4.770999908447266 -30.43440055847168 L -4.769999980926514 -30.451000213623047 L -4.770999908447266 -30.475147247314453 L -4.771759510040283 -30.49349021911621 L -4.770999908447266 -30.50925064086914 L -4.769999980926514 -30.530000686645508 L -4.7709431648254395 -30.547597885131836 L -4.769999980926514 -30.56999969482422 L -4.770999908447266 -30.586299896240234 L -4.771523952484131 -30.594844818115234 L -4.770999908447266 -30.610000610351562 L -4.7729997634887695 -30.64027976989746 L -4.773819446563721 -30.652681350708008 L -4.7729997634887695 -30.68899917602539 L -4.77400016784668 -30.701765060424805 L -4.77437162399292 -30.706506729125977 L -4.77400016784668 -30.729000091552734 L -4.776000022888184 -30.75267219543457 L -4.776152610778809 -30.754478454589844 L -4.776000022888184 -30.768999099731445 L -4.7779998779296875 -30.791034698486328 L -4.778929710388184 -30.80127716064453 L -4.7789998054504395 -30.847999572753906 L -4.781666278839111 -30.87386703491211 L -4.7820000648498535 -30.905000686645508 L -4.784714698791504 -30.92947006225586 L -4.784999847412109 -30.94499969482422 L -4.789842128753662 -30.986255645751953 L -4.790999889373779 -31.02400016784668 L -4.793181896209717 -31.040771484375 L -4.794000148773193 -31.06399917602539 L -4.795987606048584 -31.07855224609375 L -4.796999931335449 -31.10300064086914 L -4.80294132232666 -31.144588470458984 L -4.804999828338623 -31.183000564575195 L -4.809298992156982 -31.210575103759766 L -4.809999942779541 -31.222000122070312 L -4.812418460845947 -31.237056732177734 L -4.814000129699707 -31.26099967956543 L -4.821181297302246 -31.304019927978516 L -4.823999881744385 -31.34000015258789 L -4.827052593231201 -31.356950759887695 L -4.828999996185303 -31.3799991607666 L -4.833787441253662 -31.405641555786133 L -4.835000038146973 -31.41900062561035 L -4.841188907623291 -31.451326370239258 L -4.8460001945495605 -31.49799919128418 L -4.849862575531006 -31.5167179107666 L -4.853000164031982 -31.545000076293945 L -4.858370304107666 -31.57011604309082 L -4.860000133514404 -31.583999633789062 L -4.869490146636963 -31.62733268737793 L -4.874000072479248 -31.66200065612793 L -4.8780622482299805 -31.67949104309082 L -4.88100004196167 -31.701000213623047 L -4.884549140930176 -31.715843200683594 L -4.888000011444092 -31.739999771118164 L -4.898486614227295 -31.782636642456055 L -4.9039998054504395 -31.81800079345703 L -4.908595085144043 -31.83580207824707 L -4.9120001792907715 -31.85700035095215 L -4.916024684906006 -31.87218475341797 L -4.920000076293945 -31.895999908447266 L -4.93223237991333 -31.94097328186035 L -4.938000202178955 -31.972999572753906 L -4.943005561828613 -31.990604400634766 L -4.947000026702881 -32.012001037597656 L -4.951472282409668 -32.02735137939453 L -4.955999851226807 -32.05099868774414 L -4.969282150268555 -32.09544372558594 L -4.97599983215332 -32.12799835205078 L -4.981301307678223 -32.14502716064453 L -4.986000061035156 -32.16699981689453 L -4.991335391998291 -32.18370056152344 L -4.995999813079834 -32.20500183105469 L -5.010242462158203 -32.248600006103516 L -5.01800012588501 -32.28200149536133 L -5.0245256423950195 -32.30128479003906 L -5.0289998054504395 -32.31999969482422 L -5.03473424911499 -32.33658981323242 L -5.039999961853027 -32.358001708984375 L -5.0525922775268555 -32.3936767578125 L -5.063000202178955 -32.433998107910156 L -5.069963455200195 -32.45299530029297 L -5.074999809265137 -32.47200012207031 L -5.081104755401611 -32.48832702636719 L -5.086999893188477 -32.5099983215332 L -5.101376533508301 -32.54763412475586 L -5.111999988555908 -32.584999084472656 L -5.119339942932129 -32.603572845458984 L -5.125 -32.62300109863281 L -5.132586479187012 -32.641883850097656 L -5.138000011444092 -32.65999984741211 L -5.153250694274902 -32.697265625 L -5.164999961853027 -32.73500061035156 L -5.175011157989502 -32.758644104003906 L -5.177999973297119 -32.768001556396484 L -5.186031818389893 -32.7867317199707 L -5.191999912261963 -32.80500030517578 L -5.205169200897217 -32.83517074584961 L -5.21999979019165 -32.87900161743164 L -5.229462623596191 -32.89997863769531 L -5.235000133514404 -32.91600036621094 L -5.24346923828125 -32.93449401855469 L -5.25 -32.952999114990234 L -5.265222549438477 -32.98568344116211 L -5.28000020980835 -33.0260009765625 L -5.2897539138793945 -33.046295166015625 L -5.296000003814697 -33.0629997253418 L -5.306380748748779 -33.08428955078125 L -5.311999797821045 -33.0989990234375 L -5.327661991119385 -33.13066101074219 L -5.343999862670898 -33.172000885009766 L -5.351253986358643 -33.18622970581055 L -5.360000133514404 -33.20800018310547 L -5.370732307434082 -33.22868347167969 L -5.376999855041504 -33.24399948120117 L -5.3950018882751465 -33.27821731567383 L -5.410999774932861 -33.316001892089844 L -5.420566558837891 -33.33366012573242 L -5.425000190734863 -33.34400177001953 L -5.436132907867432 -33.3642692565918 L -5.442999839782715 -33.380001068115234 L -5.458893299102783 -33.40863800048828 L -5.478000164031982 -33.45100021362305 L -5.487771034240723 -33.4680290222168 L -5.495999813079834 -33.486000061035156 L -5.50730562210083 -33.50547790527344 L -5.514999866485596 -33.52199935913086 L -5.5332231521606445 -33.55292892456055 L -5.552000045776367 -33.59199905395508 L -5.561850070953369 -33.60823440551758 L -5.571000099182129 -33.62699890136719 L -5.582173824310303 -33.645179748535156 L -5.590000152587891 -33.6609992980957 L -5.608434677124023 -33.6906623840332 L -5.629000186920166 -33.73099899291992 L -5.6414055824279785 -33.750362396240234 L -5.64900016784668 -33.76499938964844 L -5.660256385803223 -33.78238296508789 L -5.669000148773193 -33.79899978637695 L -5.689824104309082 -33.830753326416016 L -5.710000038146973 -33.86800003051758 L -5.725250244140625 -33.8906364440918 L -5.72599983215332 -33.891998291015625 L -5.732223987579346 -33.90117645263672 L -5.745999813079834 -33.92599868774414 L -5.773301601409912 -33.965641021728516 L -5.789000034332275 -33.99300003051758 L -5.796123027801514 -34.003089904785156 L -5.809999942779541 -34.027000427246094 L -5.824436187744141 -34.04716110229492 L -5.831999778747559 -34.060001373291016 L -5.856289386749268 -34.09351348876953 L -5.875999927520752 -34.125999450683594 L -5.885966777801514 -34.13942337036133 L -5.8979997634887695 -34.159000396728516 L -5.9065117835998535 -34.17029571533203 L -5.920000076293945 -34.19200134277344 L -5.946963787078857 -34.22728729248047 L -5.966000080108643 -34.25699996948242 L -5.975355625152588 -34.2689323425293 L -5.988999843597412 -34.290000915527344 L -6.000495910644531 -34.30445861816406 L -6.01200008392334 -34.321998596191406 L -6.035870552062988 -34.35166931152344 L -6.059000015258789 -34.38600158691406 L -6.070659160614014 -34.40012741088867 L -6.076000213623047 -34.40800094604492 L -6.087553024291992 -34.42192840576172 L -6.099999904632568 -34.439998626708984 L -6.1281914710998535 -34.4735221862793 L -6.14900016784668 -34.50299835205078 L -6.15974760055542 -34.5154914855957 L -6.172999858856201 -34.534000396728516 L -6.18796968460083 -34.5511589050293 L -6.197999954223633 -34.564998626708984 L -6.222993850708008 -34.59332275390625 L -6.248000144958496 -34.62699890136719 L -6.263781547546387 -34.644439697265625 L -6.27400016784668 -34.65800094604492 L -6.2865777015686035 -34.6717414855957 L -6.298999786376953 -34.6879997253418 L -6.331371784210205 -34.72296905517578 L -6.35099983215332 -34.74800109863281 L -6.364385604858398 -34.76213455200195 L -6.376999855041504 -34.77799987792969 L -6.388510704040527 -34.78998947143555 L -6.4029998779296875 -34.80799865722656 L -6.431337356567383 -34.837120056152344 L -6.455999851226807 -34.867000579833984 L -6.460451602935791 -34.8714599609375 L -6.474999904632568 -34.888999938964844 L -6.490853309631348 -34.904747009277344 L -6.501999855041504 -34.917999267578125 L -6.528411865234375 -34.943939208984375 L -6.556000232696533 -34.97600173950195 L -6.571658611297607 -34.990997314453125 L -6.583000183105469 -35.00400161743164 L -6.597668170928955 -35.01789474487305 L -6.611000061035156 -35.03300094604492 L -6.639599323272705 -35.059722900390625 L -6.666999816894531 -35.09000015258789 L -6.681457996368408 -35.10320281982422 L -6.695000171661377 -35.11800003051758 L -6.707520484924316 -35.12928009033203 L -6.7230000495910645 -35.145999908447266 L -6.754016399383545 -35.173561096191406 L -6.78000020980835 -35.20100021362305 L -6.7985429763793945 -35.217105865478516 L -6.809000015258789 -35.22800064086914 L -6.8255743980407715 -35.24223327636719 L -6.8379998207092285 -35.255001068115234 L -6.871055603027344 -35.282997131347656 L -6.896999835968018 -35.308998107910156 L -6.90217399597168 -35.31328201293945 L -6.918000221252441 -35.32899856567383 L -6.933248996734619 -35.341514587402344 L -6.947999954223633 -35.35599899291992 L -6.978331565856934 -35.38053894042969 L -7.006999969482422 -35.40800094604492 L -7.022270202636719 -35.420047760009766 L -7.0370001792907715 -35.433998107910156 L -7.056183815002441 -35.44895935058594 L -7.067999839782715 -35.459999084472656 L -7.094233512878418 -35.48016357421875 L -7.127999782562256 -35.51100158691406 L -7.14727258682251 -35.52543640136719 L -7.158999919891357 -35.5359992980957 L -7.1763834953308105 -35.54890060424805 L -7.190000057220459 -35.56100082397461 L -7.218059539794922 -35.58151626586914 L -7.251999855041504 -35.611000061035156 L -7.269893169403076 -35.62374496459961 L -7.2829999923706055 -35.6349983215332 L -7.30465841293335 -35.65024185180664 L -7.315000057220459 -35.659000396728516 L -7.3462090492248535 -35.680694580078125 L -7.377999782562256 -35.707000732421875 L -7.381587028503418 -35.70942687988281 L -7.4029998779296875 -35.72700119018555 L -7.423293113708496 -35.74052810668945 L -7.434999942779541 -35.75 L -7.468316555023193 -35.77199935913086 L -7.5 -35.797000885009766 L -7.514321804046631 -35.80621337890625 L -7.5320000648498535 -35.81999969482422 L -7.556674480438232 -35.835601806640625 L -7.565000057220459 -35.84199905395508 L -7.595290660858154 -35.86100387573242 L -7.630000114440918 -35.887001037597656 L -7.641144275665283 -35.89378356933594 L -7.663000106811523 -35.90999984741211 L -7.686655521392822 -35.92416763305664 L -7.696000099182129 -35.930999755859375 L -7.727225303649902 -35.94951629638672 L -7.763000011444092 -35.974998474121094 L -7.7801384925842285 -35.98483657836914 L -7.796000003814697 -35.99599838256836 L -7.816479682922363 -36.00760269165039 L -7.829999923706055 -36.016998291015625 L -7.8641767501831055 -36.036102294921875 L -7.8979997634887695 -36.058998107910156 L -7.914214611053467 -36.06781005859375 L -7.927999973297119 -36.07699966430664 L -7.939816951751709 -36.083351135253906 L -7.961999893188477 -36.097999572753906 L -7.994140148162842 -36.11492919921875 L -8.029999732971191 -36.13800048828125 L -8.055904388427734 -36.151248931884766 L -8.0649995803833 -36.15700149536133 L -8.07589340209961 -36.16250228881836 L -8.098999977111816 -36.176998138427734 L -8.140032768249512 -36.19737243652344 L -8.168999671936035 -36.21500015258789 L -8.185731887817383 -36.223060607910156 L -8.192000389099121 -36.22681427001953 L -8.204000473022461 -36.23400115966797 L -8.218846321105957 -36.24104690551758 L -8.23900032043457 -36.25299835205078 L -8.283112525939941 -36.273563385009766 L -8.3100004196167 -36.28900146484375 L -8.326028823852539 -36.2962532043457 L -8.345000267028809 -36.30699920654297 L -8.363758087158203 -36.31536102294922 L -8.380999565124512 -36.32500076293945 L -8.414998054504395 -36.33989715576172 L -8.45199966430664 -36.36000061035156 L -8.463811874389648 -36.36499786376953 L -8.48799991607666 -36.37799835205078 L -8.513763427734375 -36.388607025146484 L -8.52400016784668 -36.39400100708008 L -8.556163787841797 -36.40711212158203 L -8.597000122070312 -36.428001403808594 L -8.616388320922852 -36.43560791015625 L -8.633000373840332 -36.444000244140625 L -8.649806022644043 -36.450469970703125 L -8.668999671936035 -36.459999084472656 L -8.708792686462402 -36.475006103515625 L -8.741999626159668 -36.49100112915039 L -8.756097793579102 -36.49612808227539 L -8.779000282287598 -36.50699996948242 L -8.799493789672852 -36.514305114746094 L -8.815999984741211 -36.52199935913086 L -8.855693817138672 -36.53593063354492 L -8.888999938964844 -36.55099868774414 L -8.902823448181152 -36.555667877197266 L -8.925999641418457 -36.566001892089844 L -8.94625473022461 -36.572662353515625 L -8.963000297546387 -36.58000183105469 L -9.00032901763916 -36.59205627441406 L -9.038000106811523 -36.608001708984375 L -9.072494506835938 -36.618675231933594 L -9.083000183105469 -36.62300109863281 L -9.09315299987793 -36.62605285644531 L -9.119999885559082 -36.637001037597656 L -9.15860366821289 -36.6483268737793 L -9.196000099182129 -36.66299819946289 L -9.217432975769043 -36.66900634765625 L -9.232999801635742 -36.67499923706055 L -9.25572681427002 -36.68124008178711 L -9.270999908447266 -36.6870002746582 L -9.308955192565918 -36.697166442871094 L -9.347000122070312 -36.71099853515625 L -9.362366676330566 -36.71493148803711 L -9.385000228881836 -36.722999572753906 L -9.397921562194824 -36.726200103759766 L -9.42300033569336 -36.73500061035156 L -9.460883140563965 -36.7441291809082 L -9.49899959564209 -36.75699996948242 L -9.523677825927734 -36.76261901855469 L -9.536999702453613 -36.766998291015625 L -9.552902221679688 -36.770538330078125 L -9.576000213623047 -36.77799987792969 L -9.613767623901367 -36.786170959472656 L -9.652000427246094 -36.79800033569336 L -9.691363334655762 -36.80599594116211 L -9.708000183105469 -36.81100082397461 L -9.722556114196777 -36.81382751464844 L -9.746999740600586 -36.82099914550781 L -9.785199165344238 -36.828125 L -9.824000358581543 -36.8390007019043 L -9.84095573425293 -36.84194564819336 L -9.86299991607666 -36.847999572753906 L -9.887417793273926 -36.85209274291992 L -9.902000427246094 -36.85599899291992 L -9.933829307556152 -36.861183166503906 L -9.979999542236328 -36.87300109863281 L -10.006927490234375 -36.877010345458984 L -10.019000053405762 -36.880001068115234 L -10.033465385437012 -36.88208770751953 L -10.057999610900879 -36.88800048828125 L -10.099238395690918 -36.89363098144531 L -10.13599967956543 -36.902000427246094 L -10.153088569641113 -36.90412139892578 L -10.175000190734863 -36.909000396728516 L -10.189605712890625 -36.91072463989258 L -10.21399974822998 -36.91600036621094 L -10.256158828735352 -36.920719146728516 L -10.291999816894531 -36.928001403808594 L -10.32996654510498 -36.93177795410156 L -10.362000465393066 -36.9379997253418 L -10.385688781738281 -36.94014358520508 L -10.401000022888184 -36.94300079345703 L -10.442687034606934 -36.94651412963867 L -10.479999542236328 -36.952999114990234 L -10.496139526367188 -36.954166412353516 L -10.519000053405762 -36.95800018310547 L -10.534662246704102 -36.95903778076172 L -10.559000015258789 -36.9630012512207 L -10.600750923156738 -36.9654541015625 L -10.637999534606934 -36.97100067138672 L -10.654680252075195 -36.971778869628906 L -10.677000045776367 -36.974998474121094 L -10.702646255493164 -36.97603988647461 L -10.717000007629395 -36.97800064086914 L -10.759552955627441 -36.97947311401367 L -10.795999526977539 -36.98400115966797 L -10.814303398132324 -36.984439849853516 L -10.836000442504883 -36.98699951171875 L -10.85031795501709 -36.98723602294922 L -10.875 -36.9900016784668 L -10.91951847076416 -36.9904670715332 L -10.954999923706055 -36.99399948120117 L -10.980378150939941 -36.993961334228516 L -10.980799674987793 -36.99399948120117 L -11.01395034790039 -36.99700164794922 L -11.024999618530273 -36.99800109863281 L -11.049572944641113 -36.99769973754883 L -11.053142547607422 -36.99800109863281 L -11.0649995803833 -36.999000549316406 L -11.106619834899902 -36.99829864501953 L -11.1163330078125 -36.999000549316406 L -11.144000053405762 -37.000999450683594 L -11.161285400390625 -37.00049591064453 L -11.168886184692383 -37.000999450683594 L -11.184000015258789 -37.00199890136719 L -11.208365440368652 -37.00114059448242 L -11.222999572753906 -37.00199890136719 L -11.247184753417969 -37.000999450683594 L -11.265396118164062 -37.000247955322266 L -11.272000312805176 -37.000553131103516 L -11.303000450134277 -37.00199890136719 L -11.320210456848145 -37.001075744628906 L -11.343000411987305 -37.00199890136719 L -11.359692573547363 -37.000999450683594 L -11.367856979370117 -37.000511169433594 L -11.381999969482422 -37.000999450683594 L -11.397162437438965 -37 L -11.414474487304688 -36.99885940551758 L -11.461999893188477 -37 L -11.487529754638672 -36.99800109863281 L -11.489877700805664 -36.9978141784668 L -11.50100040435791 -36.99800109863281 L -11.512836456298828 -36.99700164794922 L -11.515952110290527 -36.99673843383789 L -11.541000366210938 -36.99700164794922 L -11.574050903320312 -36.99399948120117 L -11.584479331970215 -36.9930534362793 L -11.619999885559082 -36.99300003051758 L -11.645206451416016 -36.99040222167969 L -11.678000450134277 -36.9900016784668 L -11.692240715026855 -36.98841857910156 L -11.717000007629395 -36.987998962402344 L -11.758601188659668 -36.983116149902344 L -11.79699993133545 -36.981998443603516 L -11.814129829406738 -36.97977066040039 L -11.836000442504883 -36.979000091552734 L -11.860692024230957 -36.97563171386719 L -11.87600040435791 -36.974998474121094 L -11.9181547164917 -36.96897888183594 L -11.954999923706055 -36.96699905395508 L -11.972663879394531 -36.96427917480469 L -11.994000434875488 -36.9630012512207 L -12.018604278564453 -36.959014892578125 L -12.034000396728516 -36.95800018310547 L -12.065637588500977 -36.95270919799805 L -12.11299991607666 -36.94900131225586 L -12.140832901000977 -36.94394302368164 L -12.152000427246094 -36.94300079345703 L -12.167264938354492 -36.940155029296875 L -12.190999984741211 -36.9379997253418 L -12.23387336730957 -36.929725646972656 L -12.270000457763672 -36.92599868774414 L -12.288983345031738 -36.92211151123047 L -12.317000389099121 -36.91899871826172 L -12.331748008728027 -36.91584777832031 L -12.355999946594238 -36.91299819946289 L -12.397287368774414 -36.903907775878906 L -12.4350004196167 -36.89899826049805 L -12.452469825744629 -36.894935607910156 L -12.473999977111816 -36.891998291015625 L -12.499134063720703 -36.885982513427734 L -12.512999534606934 -36.88399887084961 L -12.545310020446777 -36.876041412353516 L -12.590999603271484 -36.86899948120117 L -12.618328094482422 -36.86188888549805 L -12.630000114440918 -36.86000061035156 L -12.64675521850586 -36.855552673339844 L -12.668000221252441 -36.85200119018555 L -12.71040153503418 -36.8404655456543 L -12.746000289916992 -36.83399963378906 L -12.763669967651367 -36.828975677490234 L -12.78499984741211 -36.82500076293945 L -12.801854133605957 -36.82008361816406 L -12.822999954223633 -36.816001892089844 L -12.857544898986816 -36.805694580078125 L -12.899999618530273 -36.797000885009766 L -12.926825523376465 -36.788604736328125 L -12.939000129699707 -36.7859992980957 L -12.95345401763916 -36.78140640258789 L -12.977999687194824 -36.7760009765625 L -13.01394271850586 -36.764320373535156 L -13.053999900817871 -36.755001068115234 L -13.072999954223633 -36.74855041503906 L -13.092000007629395 -36.74399948120117 L -13.118731498718262 -36.73477554321289 L -13.130000114440918 -36.731998443603516 L -13.165430068969727 -36.71955490112305 L -13.206000328063965 -36.70899963378906 L -13.225031852722168 -36.70203399658203 L -13.244000434875488 -36.696998596191406 L -13.260601043701172 -36.690818786621094 L -13.281999588012695 -36.685001373291016 L -13.31757640838623 -36.67149353027344 L -13.357999801635742 -36.65999984741211 L -13.379517555236816 -36.65151596069336 L -13.395000457763672 -36.64699935913086 L -13.411191940307617 -36.640506744384766 L -13.432999610900879 -36.63399887084961 L -13.473593711853027 -36.61745834350586 L -13.506999969482422 -36.606998443603516 L -13.521661758422852 -36.600826263427734 L -13.539999961853027 -36.595001220703125 L -13.555743217468262 -36.588233947753906 L -13.57800006866455 -36.58100128173828 L -13.617661476135254 -36.563655853271484 L -13.652000427246094 -36.551998138427734 L -13.663545608520508 -36.546783447265625 L -13.689000129699707 -36.53799819946289 L -13.710723876953125 -36.52801513671875 L -13.725000381469727 -36.52299880981445 L -13.764288902282715 -36.504703521728516 L -13.798999786376953 -36.492000579833984 L -13.813647270202637 -36.484947204589844 L -13.835000038146973 -36.47700119018555 L -13.852798461914062 -36.46828842163086 L -13.871999740600586 -36.46099853515625 L -13.907383918762207 -36.44343566894531 L -13.944000244140625 -36.42900085449219 L -13.96354866027832 -36.41899871826172 L -13.980999946594238 -36.4119987487793 L -13.992837905883789 -36.405845642089844 L -14.017000198364258 -36.395999908447266 L -14.051504135131836 -36.377784729003906 L -14.08899974822998 -36.36199951171875 L -14.115279197692871 -36.347740173339844 L -14.116999626159668 -36.34700012207031 L -14.132387161254883 -36.33857727050781 L -14.152000427246094 -36.33000183105469 L -14.189716339111328 -36.30904006958008 L -14.222999572753906 -36.29399871826172 L -14.23605728149414 -36.28654479980469 L -14.258999824523926 -36.2760009765625 L -14.273681640625 -36.26746368408203 L -14.293999671936035 -36.257999420166016 L -14.334304809570312 -36.23429489135742 L -14.36400032043457 -36.220001220703125 L -14.380370140075684 -36.21011734008789 L -14.39900016784668 -36.20100021362305 L -14.413103103637695 -36.19237518310547 L -14.434000015258789 -36.18199920654297 L -14.467308044433594 -36.16126251220703 L -14.503000259399414 -36.143001556396484 L -14.522758483886719 -36.130401611328125 L -14.536999702453613 -36.12300109863281 L -14.549720764160156 -36.11476135253906 L -14.571999549865723 -36.10300064086914 L -14.59908676147461 -36.085201263427734 L -14.640000343322754 -36.0629997253418 L -14.658044815063477 -36.05080795288086 L -14.664999961853027 -36.047000885009766 L -14.681904792785645 -36.035499572753906 L -14.699000358581543 -36.0260009765625 L -14.730467796325684 -36.0042839050293 L -14.765999794006348 -35.98400115966797 L -14.788003921508789 -35.9683952331543 L -14.798999786376953 -35.96200180053711 L -14.80685043334961 -35.95637893676758 L -14.833000183105469 -35.941001892089844 L -14.866767883300781 -35.91645812988281 L -14.89900016784668 -35.89699935913086 L -14.912516593933105 -35.88691711425781 L -14.932000160217285 -35.875 L -14.955232620239258 -35.857460021972656 L -14.96399974822998 -35.85200119018555 L -14.987077713012695 -35.83436584472656 L -15.029999732971191 -35.80699920654297 L -15.054001808166504 -35.78818130493164 L -15.062000274658203 -35.78300094604492 L -15.076689720153809 -35.7713737487793 L -15.093999862670898 -35.7599983215332 L -15.124018669128418 -35.7359619140625 L -15.157999992370605 -35.7130012512207 L -15.167584419250488 -35.70512771606445 L -15.180999755859375 -35.69599914550781 L -15.199748992919922 -35.68045425415039 L -15.211999893188477 -35.672000885009766 L -15.24530029296875 -35.644065856933594 L -15.274999618530273 -35.62300109863281 L -15.287490844726562 -35.61225128173828 L -15.305999755859375 -35.5989990234375 L -15.318135261535645 -35.588436126708984 L -15.338000297546387 -35.57400131225586 L -15.370478630065918 -35.5452766418457 L -15.39900016784668 -35.52399826049805 L -15.409788131713867 -35.514259338378906 L -15.430000305175781 -35.499000549316406 L -15.450072288513184 -35.480587005615234 L -15.460000038146973 -35.472999572753906 L -15.482372283935547 -35.45228958129883 L -15.520999908447266 -35.422000885009766 L -15.535118103027344 -35.4085693359375 L -15.550999641418457 -35.395999908447266 L -15.563078880310059 -35.38435363769531 L -15.581000328063965 -35.369998931884766 L -15.610431671142578 -35.34129333496094 L -15.640000343322754 -35.31700134277344 L -15.649292945861816 -35.307708740234375 L -15.66100025177002 -35.29800033569336 L -15.676912307739258 -35.281978607177734 L -15.6899995803833 -35.270999908447266 L -15.722274780273438 -35.238136291503906 L -15.748000144958496 -35.215999603271484 L -15.75826358795166 -35.2053108215332 L -15.777000427246094 -35.18899917602539 L -15.79561710357666 -35.16929626464844 L -15.805000305175781 -35.1609992980957 L -15.82643985748291 -35.13810348510742 L -15.862000465393066 -35.10599899291992 L -15.880406379699707 -35.08580017089844 L -15.890000343322754 -35.07699966430664 L -15.90127944946289 -35.06447982788086 L -15.918000221252441 -35.04899978637695 L -15.945307731628418 -35.01834487915039 L -15.972999572753906 -34.992000579833984 L -15.988852500915527 -34.973751068115234 L -16 -34.9630012512207 L -16.008926391601562 -34.952606201171875 L -16.027999877929688 -34.933998107910156 L -16.056055068969727 -34.900943756103516 L -16.08099937438965 -34.875999450683594 L -16.08526039123535 -34.870853424072266 L -16.101999282836914 -34.854000091552734 L -16.11441421508789 -34.83883285522461 L -16.128000259399414 -34.82500076293945 L -16.152742385864258 -34.79443359375 L -16.180999755859375 -34.76499938964844 L -16.197891235351562 -34.74357986450195 L -16.20599937438965 -34.73500061035156 L -16.21641731262207 -34.721641540527344 L -16.23200035095215 -34.70500183105469 L -16.25713348388672 -34.672386169433594 L -16.283000946044922 -34.64400100708008 L -16.297666549682617 -34.62446975708008 L -16.308000564575195 -34.612998962402344 L -16.316055297851562 -34.60214614868164 L -16.333999633789062 -34.582000732421875 L -16.359838485717773 -34.546661376953125 L -16.382999420166016 -34.52000045776367 L -16.384000778198242 -34.51860046386719 L -16.395893096923828 -34.50193405151367 L -16.406999588012695 -34.48899841308594 L -16.413360595703125 -34.47996139526367 L -16.43199920654297 -34.45800018310547 L -16.457780838012695 -34.420841217041016 L -16.479999542236328 -34.39400100708008 L -16.48695945739746 -34.38370895385742 L -16.499000549316406 -34.36899948120117 L -16.50812530517578 -34.355377197265625 L -16.523000717163086 -34.33700180053711 L -16.545881271362305 -34.30231475830078 L -16.569000244140625 -34.27299880981445 L -16.581754684448242 -34.25313949584961 L -16.591999053955078 -34.2400016784668 L -16.599796295166016 -34.22772979736328 L -16.614999771118164 -34.20800018310547 L -16.637496948242188 -34.17196273803711 L -16.65999984741211 -34.141998291015625 L -16.67133903503418 -34.12336730957031 L -16.68199920654297 -34.10900115966797 L -16.691808700561523 -34.092674255371094 L -16.70400047302246 -34.07600021362305 L -16.723804473876953 -34.04249954223633 L -16.746999740600586 -34.0099983215332 L -16.760181427001953 -33.98711013793945 L -16.76799964904785 -33.97600173950195 L -16.775196075439453 -33.96333694458008 L -16.790000915527344 -33.94200134277344 L -16.81076431274414 -33.90492248535156 L -16.83099937438965 -33.875 L -16.83565902709961 -33.86640930175781 L -16.850000381469727 -33.845001220703125 L -16.86039924621582 -33.82555389404297 L -16.8700008392334 -33.81100082397461 L -16.889833450317383 -33.77340316772461 L -16.90999984741211 -33.742000579833984 L -16.91667366027832 -33.72897720336914 L -16.93000030517578 -33.70800018310547 L -16.941883087158203 -33.68439865112305 L -16.948999404907227 -33.67300033569336 L -16.964941024780273 -33.640892028808594 L -16.988000869750977 -33.60300064086914 L -16.99619483947754 -33.58598327636719 L -17.006999969482422 -33.56800079345703 L -17.01786994934082 -33.54505920410156 L -17.024999618530273 -33.53300094604492 L -17.039203643798828 -33.502586364746094 L -17.062000274658203 -33.4630012512207 L -17.0715274810791 -33.4419059753418 L -17.079999923706055 -33.426998138427734 L -17.08612823486328 -33.41320037841797 L -17.097999572753906 -33.391998291015625 L -17.118621826171875 -33.344669342041016 L -17.131999969482422 -33.31999969482422 L -17.136747360229492 -33.308780670166016 L -17.149999618530273 -33.284000396728516 L -17.157215118408203 -33.26654815673828 L -17.16699981689453 -33.24800109863281 L -17.181856155395508 -33.21141052246094 L -17.200000762939453 -33.17599868774414 L -17.207502365112305 -33.15687561035156 L -17.215999603271484 -33.13999938964844 L -17.224124908447266 -33.11886215209961 L -17.23200035095215 -33.10300064086914 L -17.243635177612305 -33.07228088378906 L -17.263999938964844 -33.029998779296875 L -17.270841598510742 -33.01121520996094 L -17.27899932861328 -32.99399948120117 L -17.286348342895508 -32.973384857177734 L -17.29400062561035 -32.957000732421875 L -17.30592918395996 -32.923004150390625 L -17.323999404907227 -32.882999420166016 L -17.331562042236328 -32.860496520996094 L -17.33799934387207 -32.84600067138672 L -17.34467124938965 -32.82582092285156 L -17.351999282836914 -32.808998107910156 L -17.3641414642334 -32.7714729309082 L -17.365610122680664 -32.768001556396484 L -17.3799991607666 -32.73400115966797 L -17.38775062561035 -32.70895004272461 L -17.395999908447266 -32.68899917602539 L -17.401782989501953 -32.66977310180664 L -17.409000396728516 -32.652000427246094 L -17.419164657592773 -32.61736297607422 L -17.434999465942383 -32.57699966430664 L -17.441972732543945 -32.55207824707031 L -17.44700050354004 -32.53900146484375 L -17.45067024230957 -32.525630950927734 L -17.459999084472656 -32.500999450683594 L -17.46927261352539 -32.466434478759766 L -17.483999252319336 -32.42599868774414 L -17.490339279174805 -32.40107727050781 L -17.4950008392334 -32.38800048828125 L -17.49827003479004 -32.3748779296875 L -17.506999969482422 -32.349998474121094 L -17.516820907592773 -32.309242248535156 L -17.52899932861328 -32.27299880981445 L -17.532550811767578 -32.257530212402344 L -17.540000915527344 -32.23500061035156 L -17.54496955871582 -32.212547302246094 L -17.549999237060547 -32.196998596191406 L -17.558841705322266 -32.15605926513672 L -17.56999969482422 -32.119998931884766 L -17.575916290283203 -32.09087371826172 L -17.583999633789062 -32.06399917602539 L -17.588672637939453 -32.03974533081055 L -17.593000411987305 -32.025001525878906 L -17.600269317626953 -31.986352920532227 L -17.611000061035156 -31.947999954223633 L -17.614017486572266 -31.930784225463867 L -17.6200008392334 -31.909000396728516 L -17.621990203857422 -31.897130966186523 L -17.628999710083008 -31.871000289916992 L -17.635631561279297 -31.829832077026367 L -17.645000457763672 -31.792999267578125 L -17.647544860839844 -31.775894165039062 L -17.652999877929688 -31.753999710083008 L -17.656476974487305 -31.729618072509766 L -17.65999984741211 -31.71500015258789 L -17.66425132751465 -31.683822631835938 L -17.674999237060547 -31.636999130249023 L -17.678356170654297 -31.609941482543945 L -17.680999755859375 -31.597999572753906 L -17.682973861694336 -31.581274032592773 L -17.687999725341797 -31.558000564575195 L -17.692720413208008 -31.515840530395508 L -17.700000762939453 -31.479999542236328 L -17.703739166259766 -31.4424991607666 L -17.709999084472656 -31.40999984741211 L -17.711240768432617 -31.39630126953125 L -17.715999603271484 -31.371000289916992 L -17.719457626342773 -31.329320907592773 L -17.72599983215332 -31.29199981689453 L -17.727855682373047 -31.265790939331055 L -17.729999542236328 -31.253000259399414 L -17.731008529663086 -31.237775802612305 L -17.735000610351562 -31.21299934387207 L -17.737445831298828 -31.171342849731445 L -17.743000030517578 -31.134000778198242 L -17.743797302246094 -31.117450714111328 L -17.746999740600586 -31.094999313354492 L -17.7480411529541 -31.069368362426758 L -17.75 -31.05500030517578 L -17.751148223876953 -31.023164749145508 L -17.756999969482422 -30.97599983215332 L -17.757614135742188 -30.94873809814453 L -17.759000778198242 -30.937000274658203 L -17.7592830657959 -30.9212646484375 L -17.761999130249023 -30.89699935913086 L -17.7624568939209 -30.853538513183594 L -17.766000747680664 -30.81800079345703 L -17.765962600708008 -30.79255485534668 L -17.766000747680664 -30.792133331298828 L -17.768999099731445 -30.759033203125 L -17.770000457763672 -30.74799919128418 L -17.76973533630371 -30.72325325012207 L -17.770000457763672 -30.720054626464844 L -17.770999908447266 -30.70800018310547 L -17.770296096801758 -30.666202545166016 L -17.770999908447266 -30.6562557220459 L -17.773000717163086 -30.628000259399414 L -17.77251625061035 -30.611392974853516 L -17.773000717163086 -30.60409164428711 L -17.77400016784668 -30.589000701904297 L -17.77311897277832 -30.563995361328125 L -17.77400016784668 -30.548999786376953 L -17.773000717163086 -30.524852752685547 L -17.772703170776367 -30.517671585083008 L -17.773000717163086 -30.511499404907227 L -17.77400016784668 -30.49074935913086 L -17.774999618530273 -30.469999313354492 L -17.77400016784668 -30.451343536376953 L -17.77350616455078 -30.4421443939209 L -17.77400016784668 -30.43000030517578 L -17.773099899291992 -30.414947509765625 L -17.77400016784668 -30.389999389648438 L -17.77199935913086 -30.35972023010254 L -17.771181106567383 -30.347318649291992 L -17.77199935913086 -30.31100082397461 L -17.770999908447266 -30.298234939575195 L -17.770601272583008 -30.293142318725586 L -17.770999908447266 -30.270999908447266 L -17.768999099731445 -30.24732780456543 L -17.76884651184082 -30.245521545410156 L -17.768999099731445 -30.231000900268555 L -17.766000747680664 -30.197948455810547 L -17.765052795410156 -30.187519073486328 L -17.764999389648438 -30.152000427246094 L -17.763450622558594 -30.136960983276367 L -17.76300048828125 -30.094999313354492 L -17.760263442993164 -30.070680618286133 L -17.760000228881836 -30.05500030517578 L -17.755081176757812 -30.01308822631836 L -17.753999710083008 -29.97599983215332 L -17.75181770324707 -29.959228515625 L -17.750999450683594 -29.93600082397461 L -17.747577667236328 -29.910938262939453 L -17.746999740600586 -29.89699935913086 L -17.742658615112305 -29.866615295410156 L -17.739999771118164 -29.816999435424805 L -17.735671997070312 -29.789243698120117 L -17.735000610351562 -29.777999877929688 L -17.732582092285156 -29.762943267822266 L -17.731000900268555 -29.73900032043457 L -17.723876953125 -29.696731567382812 L -17.72100067138672 -29.65999984741211 L -17.717947006225586 -29.643049240112305 L -17.715999603271484 -29.6200008392334 L -17.711212158203125 -29.594358444213867 L -17.709999084472656 -29.58099937438965 L -17.701723098754883 -29.53812599182129 L -17.697999954223633 -29.50200080871582 L -17.694198608398438 -29.48343849182129 L -17.69099998474121 -29.454999923706055 L -17.687816619873047 -29.44000244140625 L -17.684999465942383 -29.416000366210938 L -17.675609588623047 -29.373437881469727 L -17.67099952697754 -29.33799934387207 L -17.66693687438965 -29.32050895690918 L -17.663999557495117 -29.298999786376953 L -17.65796661376953 -29.273765563964844 L -17.6560001373291 -29.260000228881836 L -17.648155212402344 -29.22789192199707 L -17.641000747680664 -29.18199920654297 L -17.63640594482422 -29.16419792175293 L -17.632999420166016 -29.14299964904785 L -17.626333236694336 -29.11784553527832 L -17.624000549316406 -29.104000091552734 L -17.614727020263672 -29.069908142089844 L -17.60700035095215 -29.027000427246094 L -17.602048873901367 -29.009685516357422 L -17.597999572753906 -28.988000869750977 L -17.590673446655273 -28.962854385375977 L -17.58799934387207 -28.948999404907227 L -17.577604293823242 -28.914024353027344 L -17.569000244140625 -28.871999740600586 L -17.563587188720703 -28.854618072509766 L -17.55900001525879 -28.83300018310547 L -17.5505428314209 -28.806529998779297 L -17.54800033569336 -28.795000076293945 L -17.537080764770508 -28.76140022277832 L -17.527000427246094 -28.718000411987305 L -17.520475387573242 -28.698713302612305 L -17.516000747680664 -28.68000030517578 L -17.510147094726562 -28.663068771362305 L -17.5049991607666 -28.642000198364258 L -17.492408752441406 -28.606321334838867 L -17.48200035095215 -28.56599998474121 L -17.47503662109375 -28.5470027923584 L -17.469999313354492 -28.527999877929688 L -17.460227966308594 -28.50186538696289 L -17.457000732421875 -28.489999771118164 L -17.442676544189453 -28.452335357666016 L -17.43199920654297 -28.415000915527344 L -17.428421020507812 -28.40590476989746 L -17.420000076293945 -28.37700080871582 L -17.41230010986328 -28.357830047607422 L -17.406999588012695 -28.34000015258789 L -17.39175033569336 -28.302734375 L -17.3799991607666 -28.264999389648438 L -17.3699893951416 -28.241355895996094 L -17.367000579833984 -28.23200035095215 L -17.358842849731445 -28.212976455688477 L -17.35300064086914 -28.19499969482422 L -17.33983039855957 -28.164831161499023 L -17.325000762939453 -28.121000289916992 L -17.31553840637207 -28.100021362304688 L -17.309999465942383 -28.083999633789062 L -17.301637649536133 -28.06580924987793 L -17.295000076293945 -28.047000885009766 L -17.27977752685547 -28.014314651489258 L -17.264999389648438 -27.974000930786133 L -17.255245208740234 -27.953702926635742 L -17.249000549316406 -27.937000274658203 L -17.238506317138672 -27.915477752685547 L -17.232999801635742 -27.900999069213867 L -17.21699333190918 -27.868640899658203 L -17.201000213623047 -27.827999114990234 L -17.193838119506836 -27.814002990722656 L -17.184999465942383 -27.79199981689453 L -17.17426872253418 -27.77131462097168 L -17.167999267578125 -27.756000518798828 L -17.14999771118164 -27.721784591674805 L -17.134000778198242 -27.68400001525879 L -17.124433517456055 -27.666337966918945 L -17.1200008392334 -27.6560001373291 L -17.108867645263672 -27.635730743408203 L -17.101999282836914 -27.6200008392334 L -17.08633041381836 -27.591856002807617 L -17.066999435424805 -27.548999786376953 L -17.0522518157959 -27.52324867248535 L -17.04800033569336 -27.513999938964844 L -17.04167366027832 -27.50306510925293 L -17.030000686645508 -27.47800064086914 L -17.011775970458984 -27.447072982788086 L -16.993000030517578 -27.408000946044922 L -16.983150482177734 -27.391765594482422 L -16.974000930786133 -27.37299919128418 L -16.962825775146484 -27.354820251464844 L -16.954999923706055 -27.339000701904297 L -16.931644439697266 -27.301532745361328 L -16.915000915527344 -27.268999099731445 L -16.907760620117188 -27.257667541503906 L -16.895999908447266 -27.235000610351562 L -16.884742736816406 -27.217618942260742 L -16.875999450683594 -27.201000213623047 L -16.855175018310547 -27.169248580932617 L -16.834999084472656 -27.131999969482422 L -16.81993865966797 -27.109710693359375 L -16.819000244140625 -27.107999801635742 L -16.80759620666504 -27.091236114501953 L -16.79800033569336 -27.073999404907227 L -16.77986717224121 -27.047670364379883 L -16.756000518798828 -27.006000518798828 L -16.74551773071289 -26.991178512573242 L -16.735000610351562 -26.972999572753906 L -16.720745086669922 -26.95314598083496 L -16.71299934387207 -26.940000534057617 L -16.688711166381836 -26.90648651123047 L -16.66900062561035 -26.874000549316406 L -16.659032821655273 -26.860576629638672 L -16.64699935913086 -26.840999603271484 L -16.632936477661133 -26.82233428955078 L -16.624000549316406 -26.808000564575195 L -16.60249900817871 -26.779787063598633 L -16.57900047302246 -26.743000030517578 L -16.569644927978516 -26.731069564819336 L -16.555999755859375 -26.709999084472656 L -16.544504165649414 -26.695541381835938 L -16.533000946044922 -26.67799949645996 L -16.503299713134766 -26.641082763671875 L -16.485000610351562 -26.61400032043457 L -16.473289489746094 -26.599775314331055 L -16.468000411987305 -26.591999053955078 L -16.456302642822266 -26.577863693237305 L -16.444000244140625 -26.559999465942383 L -16.42206573486328 -26.53385353088379 L -16.395999908447266 -26.496999740600586 L -16.384000778198242 -26.48305320739746 L -16.37943458557129 -26.47774887084961 L -16.371000289916992 -26.465999603271484 L -16.361940383911133 -26.455615997314453 L -16.347000122070312 -26.434999465942383 L -16.322006225585938 -26.40667724609375 L -16.297000885009766 -26.37299919128418 L -16.281217575073242 -26.355560302734375 L -16.270999908447266 -26.341999053955078 L -16.25822639465332 -26.32804298400879 L -16.246000289916992 -26.312000274658203 L -16.2136287689209 -26.27703285217285 L -16.194000244140625 -26.25200080871582 L -16.180774688720703 -26.238067626953125 L -16.167999267578125 -26.222000122070312 L -16.1564884185791 -26.21000862121582 L -16.142000198364258 -26.191999435424805 L -16.113258361816406 -26.162466049194336 L -16.089000701904297 -26.132999420166016 L -16.084335327148438 -26.128324508666992 L -16.06999969482422 -26.111000061035156 L -16.053979873657227 -26.095088958740234 L -16.042999267578125 -26.082000732421875 L -16.01658821105957 -26.056062698364258 L -15.98900032043457 -26.02400016784668 L -15.96725845336914 -26.003173828125 L -15.961000442504883 -25.996000289916992 L -15.952423095703125 -25.987876892089844 L -15.934000015258789 -25.966999053955078 L -15.905401229858398 -25.940279006958008 L -15.878000259399414 -25.90999984741211 L -15.863699913024902 -25.896968841552734 L -15.850000381469727 -25.881999969482422 L -15.837479591369629 -25.87071990966797 L -15.821999549865723 -25.854000091552734 L -15.784979820251465 -25.821102142333984 L -15.763999938964844 -25.798999786376953 L -15.7513427734375 -25.787981033325195 L -15.736000061035156 -25.77199935913086 L -15.71960163116455 -25.75794792175293 L -15.706999778747559 -25.7450008392334 L -15.673944473266602 -25.717002868652344 L -15.64799976348877 -25.69099998474121 L -15.642826080322266 -25.686717987060547 L -15.626999855041504 -25.67099952697754 L -15.611750602722168 -25.658485412597656 L -15.597000122070312 -25.643999099731445 L -15.566668510437012 -25.619461059570312 L -15.538000106811523 -25.591999053955078 L -15.516738891601562 -25.575223922729492 L -15.506999969482422 -25.56599998474121 L -15.493725776672363 -25.555627822875977 L -15.47700023651123 -25.540000915527344 L -15.444846153259277 -25.51528549194336 L -15.416000366210938 -25.48900032043457 L -15.40252685546875 -25.4788875579834 L -15.38599967956543 -25.464000701904297 L -15.368617057800293 -25.451101303100586 L -15.354999542236328 -25.43899917602539 L -15.32649040222168 -25.418153762817383 L -15.293000221252441 -25.388999938964844 L -15.269341468811035 -25.372146606445312 L -15.26099967956543 -25.364999771118164 L -15.245253562927246 -25.353919982910156 L -15.229999542236328 -25.340999603271484 L -15.198790550231934 -25.319305419921875 L -15.166999816894531 -25.292999267578125 L -15.163413047790527 -25.290571212768555 L -15.142000198364258 -25.273000717163086 L -15.12170696258545 -25.259471893310547 L -15.109999656677246 -25.25 L -15.076683044433594 -25.227998733520508 L -15.045000076293945 -25.202999114990234 L -15.03060245513916 -25.193754196166992 L -15.012999534606934 -25.18000030517578 L -14.987980842590332 -25.164134979248047 L -14.979999542236328 -25.158000946044922 L -14.949577331542969 -25.13895034790039 L -14.914999961853027 -25.113000869750977 L -14.903855323791504 -25.106218338012695 L -14.881999969482422 -25.09000015258789 L -14.858344078063965 -25.07583236694336 L -14.848999977111816 -25.069000244140625 L -14.817774772644043 -25.05048370361328 L -14.781999588012695 -25.024999618530273 L -14.759434700012207 -25.012046813964844 L -14.748000144958496 -25.003999710083008 L -14.73280143737793 -24.99537467956543 L -14.71500015258789 -24.982999801635742 L -14.68082332611084 -24.963895797729492 L -14.647000312805176 -24.94099998474121 L -14.63078498840332 -24.93218994140625 L -14.616999626159668 -24.92300033569336 L -14.605274200439453 -24.91670799255371 L -14.583000183105469 -24.902000427246094 L -14.545975685119629 -24.88253402709961 L -14.513999938964844 -24.86199951171875 L -14.501181602478027 -24.855432510375977 L -14.479999542236328 -24.841999053955078 L -14.456225395202637 -24.830028533935547 L -14.444999694824219 -24.822999954223633 L -14.409119606018066 -24.80515480041504 L -14.37600040435791 -24.78499984741211 L -14.359268188476562 -24.776941299438477 L -14.340999603271484 -24.766000747680664 L -14.326153755187988 -24.75895118713379 L -14.305999755859375 -24.746999740600586 L -14.261887550354004 -24.7264347076416 L -14.234999656677246 -24.711000442504883 L -14.218910217285156 -24.703731536865234 L -14.199999809265137 -24.69300079345703 L -14.181367874145508 -24.684707641601562 L -14.163999557495117 -24.674999237060547 L -14.130243301391602 -24.660234451293945 L -14.093000411987305 -24.639999389648438 L -14.076658248901367 -24.63308334350586 L -14.055999755859375 -24.621999740600586 L -14.030163764953613 -24.611343383789062 L -14.020000457763672 -24.606000900268555 L -13.992379188537598 -24.594738006591797 L -13.947999954223633 -24.57200050354004 L -13.928874969482422 -24.564496994018555 L -13.911999702453613 -24.555999755859375 L -13.895045280456543 -24.54947280883789 L -13.87600040435791 -24.540000915527344 L -13.836207389831543 -24.524995803833008 L -13.803000450134277 -24.509000778198242 L -13.788902282714844 -24.503873825073242 L -13.765999794006348 -24.493000030517578 L -13.745506286621094 -24.485694885253906 L -13.729000091552734 -24.47800064086914 L -13.685083389282227 -24.462589263916016 L -13.654999732971191 -24.448999404907227 L -13.641271591186523 -24.44435691833496 L -13.618000030517578 -24.43400001525879 L -13.597861289978027 -24.42737579345703 L -13.581000328063965 -24.420000076293945 L -13.54771900177002 -24.40923309326172 L -13.506999969482422 -24.392000198364258 L -13.472602844238281 -24.381372451782227 L -13.461999893188477 -24.37700080871582 L -13.44809627532959 -24.37282371520996 L -13.423999786376953 -24.363000869750977 L -13.389199256896973 -24.352771759033203 L -13.348999977111816 -24.336999893188477 L -13.327657699584961 -24.33102798461914 L -13.312000274658203 -24.325000762939453 L -13.289273262023926 -24.31875991821289 L -13.27400016784668 -24.312999725341797 L -13.236044883728027 -24.30283546447754 L -13.197999954223633 -24.288999557495117 L -13.182633399963379 -24.285066604614258 L -13.15999984741211 -24.277000427246094 L -13.147078514099121 -24.273799896240234 L -13.121999740600586 -24.264999389648438 L -13.08389949798584 -24.25581932067871 L -13.045999526977539 -24.243000030517578 L -13.018075942993164 -24.236642837524414 L -13.006999969482422 -24.232999801635742 L -12.994136810302734 -24.230133056640625 L -12.968999862670898 -24.222000122070312 L -12.928104400634766 -24.213153839111328 L -12.892000198364258 -24.20199966430664 L -12.8527193069458 -24.194021224975586 L -12.836000442504883 -24.18899917602539 L -12.824241638183594 -24.18671226501465 L -12.79800033569336 -24.179000854492188 L -12.756986618041992 -24.171348571777344 L -12.720000267028809 -24.160999298095703 L -12.705730438232422 -24.15851593017578 L -12.682000160217285 -24.152000427246094 L -12.657644271850586 -24.14792251586914 L -12.642999649047852 -24.143999099731445 L -12.611170768737793 -24.138816833496094 L -12.5649995803833 -24.12700080871582 L -12.538071632385254 -24.122989654541016 L -12.526000022888184 -24.1200008392334 L -12.511568069458008 -24.117919921875 L -12.487000465393066 -24.11199951171875 L -12.445761680603027 -24.106369018554688 L -12.409000396728516 -24.097999572753906 L -12.391834259033203 -24.095867156982422 L -12.369999885559082 -24.090999603271484 L -12.35539436340332 -24.089277267456055 L -12.331000328063965 -24.083999633789062 L -12.28669548034668 -24.07904815673828 L -12.251999855041504 -24.07200050354004 L -12.215924263000488 -24.068403244018555 L -12.182999610900879 -24.062000274658203 L -12.159311294555664 -24.059856414794922 L -12.144000053405762 -24.05699920654297 L -12.102202415466309 -24.05347442626953 L -12.0649995803833 -24.047000885009766 L -12.047162055969238 -24.04570960998535 L -12.024999618530273 -24.04199981689453 L -12.011007308959961 -24.041072845458984 L -11.986000061035156 -24.03700065612793 L -11.944290161132812 -24.03455352783203 L -11.906999588012695 -24.02899932861328 L -11.888891220092773 -24.028156280517578 L -11.866999626159668 -24.024999618530273 L -11.84276008605957 -24.024015426635742 L -11.82800006866455 -24.02199935913086 L -11.785447120666504 -24.02052879333496 L -11.74899959564209 -24.016000747680664 L -11.730696678161621 -24.015560150146484 L -11.708999633789062 -24.01300048828125 L -11.69355583190918 -24.012744903564453 L -11.668999671936035 -24.010000228881836 L -11.625532150268555 -24.00954246520996 L -11.59000015258789 -24.006000518798828 L -11.564620971679688 -24.006038665771484 L -11.564200401306152 -24.006000518798828 L -11.531049728393555 -24.003000259399414 L -11.520000457763672 -24.00200080871582 L -11.495427131652832 -24.002300262451172 L -11.491857528686523 -24.00200080871582 L -11.479999542236328 -24.000999450683594 L -11.43836784362793 -24.00170135498047 L -11.428667068481445 -24.000999450683594 L -11.401000022888184 -23.999000549316406 L -11.38369083404541 -23.99950408935547 L -11.376091003417969 -23.999000549316406 L -11.361000061035156 -23.99799919128418 L -11.33600902557373 -23.99888038635254 L -11.321000099182129 -23.99799919128418 L -11.296852111816406 -23.999000549316406 L -11.27916431427002 -23.999732971191406 L -11.272000312805176 -23.999399185180664 L -11.241999626159668 -23.99799919128418 L -11.224774360656738 -23.998924255371094 L -11.20199966430664 -23.99799919128418 L -11.185281753540039 -23.999000549316406 L -11.177118301391602 -23.999488830566406 L -11.163000106811523 -23.999000549316406 L -11.14783763885498 -24 L -11.130525588989258 -24.001142501831055 L -11.083000183105469 -24 L -11.057470321655273 -24.00200080871582 L -11.054950714111328 -24.002197265625 L -11.043000221252441 -24.00200080871582 L -11.031182289123535 -24.003000259399414 L -11.02817440032959 -24.003253936767578 L -11.003999710083008 -24.003000259399414 L -10.970898628234863 -24.006000518798828 L -10.960468292236328 -24.00694465637207 L -10.923999786376953 -24.006999969482422 L -10.898702621459961 -24.009611129760742 L -10.866999626159668 -24.010000228881836 L -10.852931022644043 -24.01156234741211 L -10.82699966430664 -24.011999130249023 L -10.785069465637207 -24.016921997070312 L -10.748000144958496 -24.01799964904785 L -10.731228828430176 -24.02018165588379 L -10.708000183105469 -24.020999908447266 L -10.682938575744629 -24.024423599243164 L -10.668999671936035 -24.024999618530273 L -10.626845359802246 -24.031023025512695 L -10.59000015258789 -24.033000946044922 L -10.572949409484863 -24.035627365112305 L -10.550000190734863 -24.03700065612793 L -10.524775505065918 -24.041091918945312 L -10.51099967956543 -24.04199981689453 L -10.479268074035645 -24.04729652404785 L -10.432000160217285 -24.051000595092773 L -10.404181480407715 -24.056053161621094 L -10.392999649047852 -24.05699920654297 L -10.378646850585938 -24.059675216674805 L -10.352999687194824 -24.062000274658203 L -10.30919075012207 -24.070470809936523 L -10.274999618530273 -24.073999404907227 L -10.256016731262207 -24.0778865814209 L -10.227999687194824 -24.08099937438965 L -10.214420318603516 -24.083898544311523 L -10.187999725341797 -24.086999893188477 L -10.145437240600586 -24.096389770507812 L -10.109999656677246 -24.10099983215332 L -10.092577934265137 -24.105052947998047 L -10.071000099182129 -24.107999801635742 L -10.045764923095703 -24.114032745361328 L -10.031999588012695 -24.115999221801758 L -9.99954891204834 -24.123981475830078 L -9.954000473022461 -24.131000518798828 L -9.926584243774414 -24.138120651245117 L -9.914999961853027 -24.139999389648438 L -9.899815559387207 -24.144023895263672 L -9.87600040435791 -24.148000717163086 L -9.831804275512695 -24.1600399017334 L -9.798999786376953 -24.166000366210938 L -9.781330108642578 -24.171024322509766 L -9.760000228881836 -24.174999237060547 L -9.74321174621582 -24.179899215698242 L -9.722000122070312 -24.18400001525879 L -9.687455177307129 -24.194307327270508 L -9.645000457763672 -24.202999114990234 L -9.620148658752441 -24.210765838623047 L -9.604999542236328 -24.214000701904297 L -9.58836555480957 -24.21928596496582 L -9.567000389099121 -24.224000930786133 L -9.531057357788086 -24.235681533813477 L -9.491000175476074 -24.2450008392334 L -9.474308967590332 -24.25066566467285 L -9.45199966430664 -24.256000518798828 L -9.425378799438477 -24.265201568603516 L -9.413999557495117 -24.26799964904785 L -9.378382682800293 -24.2805118560791 L -9.338000297546387 -24.291000366210938 L -9.319003105163574 -24.297964096069336 L -9.300000190734863 -24.30299949645996 L -9.28076457977295 -24.31015968322754 L -9.262999534606934 -24.315000534057617 L -9.227422714233398 -24.328506469726562 L -9.187000274658203 -24.34000015258789 L -9.165340423583984 -24.34852409362793 L -9.149999618530273 -24.35300064086914 L -9.133808135986328 -24.359493255615234 L -9.112000465393066 -24.365999221801758 L -9.07451343536377 -24.381277084350586 L -9.036999702453613 -24.39299964904785 L -9.022440910339355 -24.399139404296875 L -9.003999710083008 -24.405000686645508 L -8.985289573669434 -24.413055419921875 L -8.967000007629395 -24.41900062561035 L -8.927027702331543 -24.43644905090332 L -8.892999649047852 -24.447999954223633 L -8.881507873535156 -24.453184127807617 L -8.855999946594238 -24.461999893188477 L -8.837516784667969 -24.470495223999023 L -8.819000244140625 -24.476999282836914 L -8.776582717895508 -24.496789932250977 L -8.746000289916992 -24.507999420166016 L -8.734762191772461 -24.513410568237305 L -8.708999633789062 -24.523000717163086 L -8.687907218933105 -24.533340454101562 L -8.67300033569336 -24.538999557495117 L -8.64120101928711 -24.554786682128906 L -8.600000381469727 -24.570999145507812 L -8.577016830444336 -24.582780838012695 L -8.564000129699707 -24.58799934387207 L -8.55206298828125 -24.594192504882812 L -8.527999877929688 -24.604000091552734 L -8.493751525878906 -24.622079849243164 L -8.456000328063965 -24.63800048828125 L -8.429732322692871 -24.652254104614258 L -8.428000450134277 -24.652999877929688 L -8.416413307189941 -24.659343719482422 L -8.392000198364258 -24.670000076293945 L -8.354398727416992 -24.690935134887695 L -8.321000099182129 -24.70599937438965 L -8.303972244262695 -24.71573829650879 L -8.28600025177002 -24.724000930786133 L -8.271326065063477 -24.73251724243164 L -8.25100040435791 -24.742000579833984 L -8.210695266723633 -24.765703201293945 L -8.192000389099121 -24.774703979492188 L -8.180999755859375 -24.780000686645508 L -8.164772987365723 -24.789796829223633 L -8.145999908447266 -24.798999786376953 L -8.13189697265625 -24.807626724243164 L -8.111000061035156 -24.81800079345703 L -8.07763385772705 -24.838735580444336 L -8.041999816894531 -24.85700035095215 L -8.02649974822998 -24.86688232421875 L -8.006999969482422 -24.87700080871582 L -7.990044116973877 -24.888002395629883 L -7.9730000495910645 -24.89699935913086 L -7.945912837982178 -24.914798736572266 L -7.90500020980835 -24.937000274658203 L -7.886955261230469 -24.94919204711914 L -7.880000114440918 -24.952999114990234 L -7.863235950469971 -24.96440315246582 L -7.8460001945495605 -24.974000930786133 L -7.814491271972656 -24.99570083618164 L -7.7789998054504395 -25.016000747680664 L -7.761137008666992 -25.028635025024414 L -7.744999885559082 -25.038000106811523 L -7.73254919052124 -25.04691505432129 L -7.711999893188477 -25.05900001525879 L -7.678232192993164 -25.083539962768555 L -7.645999908447266 -25.10300064086914 L -7.632483959197998 -25.113082885742188 L -7.61299991607666 -25.125 L -7.594344139099121 -25.13908576965332 L -7.579999923706055 -25.148000717163086 L -7.551883697509766 -25.169483184814453 L -7.514999866485596 -25.19300079345703 L -7.491070747375488 -25.211763381958008 L -7.482999801635742 -25.216999053955078 L -7.468310356140137 -25.228626251220703 L -7.451000213623047 -25.239999771118164 L -7.420980930328369 -25.264039993286133 L -7.38700008392334 -25.28700065612793 L -7.377416133880615 -25.29487419128418 L -7.363999843597412 -25.304000854492188 L -7.350037097930908 -25.31557846069336 L -7.331999778747559 -25.327999114990234 L -7.300896167755127 -25.354148864746094 L -7.269999980926514 -25.375999450683594 L -7.255752086639404 -25.388290405273438 L -7.23799991607666 -25.400999069213867 L -7.221027851104736 -25.41580581665039 L -7.206999778747559 -25.426000595092773 L -7.174071788787842 -25.455059051513672 L -7.145999908447266 -25.47599983215332 L -7.13521146774292 -25.485740661621094 L -7.114999771118164 -25.500999450683594 L -7.099913120269775 -25.514841079711914 L -7.084000110626221 -25.527000427246094 L -7.056485652923584 -25.552528381347656 L -7.02400016784668 -25.577999114990234 L -7.009881973266602 -25.5914306640625 L -6.99399995803833 -25.604000091552734 L -6.9817609786987305 -25.61577606201172 L -6.964000225067139 -25.6299991607666 L -6.934568881988525 -25.658706665039062 L -6.90500020980835 -25.683000564575195 L -6.895582675933838 -25.69239616394043 L -6.883999824523926 -25.70199966430664 L -6.868226051330566 -25.717880249023438 L -6.855000019073486 -25.729000091552734 L -6.823073863983154 -25.76150894165039 L -6.796999931335449 -25.784000396728516 L -6.786942005157471 -25.794475555419922 L -6.76800012588501 -25.81100082397461 L -6.7541069984436035 -25.825668334960938 L -6.738999843597412 -25.839000701904297 L -6.71209192276001 -25.867734909057617 L -6.683000087738037 -25.893999099731445 L -6.664323806762695 -25.914445877075195 L -6.65500020980835 -25.92300033569336 L -6.64374303817749 -25.935466766357422 L -6.626999855041504 -25.951000213623047 L -6.599691867828369 -25.98165512084961 L -6.572000026702881 -26.007999420166016 L -6.561111927032471 -26.02053451538086 L -6.544000148773193 -26.03700065612793 L -6.529919624328613 -26.05339813232422 L -6.517000198364258 -26.06599998474121 L -6.494160175323486 -26.092910766601562 L -6.4629998207092285 -26.124000549316406 L -6.453874111175537 -26.135051727294922 L -6.442999839782715 -26.145999908447266 L -6.4305853843688965 -26.16116714477539 L -6.416999816894531 -26.174999237060547 L -6.392258167266846 -26.20556640625 L -6.363999843597412 -26.235000610351562 L -6.351990222930908 -26.250228881835938 L -6.3379998207092285 -26.264999389648438 L -6.327742099761963 -26.278188705444336 L -6.311999797821045 -26.295000076293945 L -6.286954402923584 -26.327585220336914 L -6.261000156402588 -26.356000900268555 L -6.246441841125488 -26.375436782836914 L -6.236000061035156 -26.386999130249023 L -6.223161220550537 -26.404348373413086 L -6.210999965667725 -26.417999267578125 L -6.185161113739014 -26.453336715698242 L -6.1620001792907715 -26.479999542236328 L -6.154030799865723 -26.491165161132812 L -6.13700008392334 -26.51099967956543 L -6.125787734985352 -26.526933670043945 L -6.11299991607666 -26.54199981689453 L -6.087512969970703 -26.5787353515625 L -6.065000057220459 -26.606000900268555 L -6.058040618896484 -26.616291046142578 L -6.046000003814697 -26.631000518798828 L -6.036873817443848 -26.644624710083008 L -6.021999835968018 -26.663000106811523 L -5.999119281768799 -26.697683334350586 L -5.97599983215332 -26.726999282836914 L -5.963370323181152 -26.746665954589844 L -5.953000068664551 -26.760000228881836 L -5.9453935623168945 -26.77197265625 L -5.929999828338623 -26.79199981689453 L -5.907395839691162 -26.82809829711914 L -5.885000228881836 -26.857999801635742 L -5.87379264831543 -26.87641716003418 L -5.86299991607666 -26.891000747680664 L -5.85319185256958 -26.90732765197754 L -5.841000080108643 -26.923999786376953 L -5.821196556091309 -26.957500457763672 L -5.797999858856201 -26.989999771118164 L -5.7893242835998535 -27.00506591796875 L -5.776000022888184 -27.02400016784668 L -5.764479637145996 -27.044336318969727 L -5.755000114440918 -27.058000564575195 L -5.734236717224121 -27.095077514648438 L -5.714000225067139 -27.125 L -5.709258079528809 -27.13371467590332 L -5.695000171661377 -27.155000686645508 L -5.684600353240967 -27.174448013305664 L -5.675000190734863 -27.18899917602539 L -5.655166149139404 -27.226598739624023 L -5.635000228881836 -27.257999420166016 L -5.628327369689941 -27.27102279663086 L -5.614999771118164 -27.29199981689453 L -5.6071343421936035 -27.307621002197266 L -5.59499979019165 -27.32699966430664 L -5.575012683868408 -27.367399215698242 L -5.557000160217285 -27.39699935913086 L -5.54880428314209 -27.41401481628418 L -5.538000106811523 -27.43199920654297 L -5.527129650115967 -27.454938888549805 L -5.519999980926514 -27.466999053955078 L -5.505795955657959 -27.49741554260254 L -5.482999801635742 -27.53700065612793 L -5.473578929901123 -27.5578556060791 L -5.465000152587891 -27.572999954223633 L -5.458871841430664 -27.58679962158203 L -5.447000026702881 -27.607999801635742 L -5.4302167892456055 -27.646522521972656 L -5.4120001792907715 -27.68000030517578 L -5.403621196746826 -27.699878692626953 L -5.394999980926514 -27.715999603271484 L -5.387784004211426 -27.73345375061035 L -5.377999782562256 -27.75200080871582 L -5.363142967224121 -27.788589477539062 L -5.34499979019165 -27.823999404907227 L -5.337496757507324 -27.84312629699707 L -5.328999996185303 -27.860000610351562 L -5.320814609527588 -27.88120460510254 L -5.313000202178955 -27.89699935913086 L -5.301364898681641 -27.92772102355957 L -5.281000137329102 -27.969999313354492 L -5.274158477783203 -27.98878288269043 L -5.265999794006348 -28.006000518798828 L -5.2585062980651855 -28.026926040649414 L -5.250999927520752 -28.042999267578125 L -5.239069938659668 -28.076997756958008 L -5.2210001945495605 -28.117000579833984 L -5.213437557220459 -28.139503479003906 L -5.206999778747559 -28.15399932861328 L -5.200329303741455 -28.174177169799805 L -5.192999839782715 -28.19099998474121 L -5.181070327758789 -28.227874755859375 L -5.164999961853027 -28.266000747680664 L -5.157083988189697 -28.291446685791016 L -5.14900016784668 -28.31100082397461 L -5.143216609954834 -28.33022689819336 L -5.136000156402588 -28.347999572753906 L -5.12583589553833 -28.38263511657715 L -5.110000133514404 -28.42300033569336 L -5.10551118850708 -28.43895149230957 L -5.0970001220703125 -28.461000442504883 L -5.090822696685791 -28.483625411987305 L -5.085000038146973 -28.499000549316406 L -5.075727462768555 -28.533567428588867 L -5.060999870300293 -28.573999404907227 L -5.057059288024902 -28.589492797851562 L -5.048999786376953 -28.61199951171875 L -5.043402194976807 -28.634605407714844 L -5.038000106811523 -28.649999618530273 L -5.028179168701172 -28.690759658813477 L -5.015999794006348 -28.726999282836914 L -5.012449264526367 -28.742467880249023 L -5.005000114440918 -28.764999389648438 L -4.999917030334473 -28.78780174255371 L -4.994999885559082 -28.80299949645996 L -4.988295555114746 -28.83404541015625 L -4.973999977111816 -28.8799991607666 L -4.966004371643066 -28.919363021850586 L -4.960999965667725 -28.93600082397461 L -4.956305980682373 -28.9603271484375 L -4.952000141143799 -28.975000381469727 L -4.946623802185059 -29.003585815429688 L -4.933000087738037 -29.052000045776367 L -4.92836332321167 -29.07868003845215 L -4.925000190734863 -29.090999603271484 L -4.9229607582092285 -29.103052139282227 L -4.915999889373779 -29.128999710083008 L -4.90936803817749 -29.170167922973633 L -4.900000095367432 -29.207000732421875 L -4.897508144378662 -29.223756790161133 L -4.892000198364258 -29.246000289916992 L -4.888522148132324 -29.270381927490234 L -4.885000228881836 -29.28499984741211 L -4.880630016326904 -29.316692352294922 L -4.869999885559082 -29.363000869750977 L -4.867874622344971 -29.3801326751709 L -4.86299991607666 -29.402000427246094 L -4.859821796417236 -29.42893409729004 L -4.85699987411499 -29.441999435424805 L -4.853507995605469 -29.473190307617188 L -4.843999862670898 -29.520000457763672 L -4.839388370513916 -29.56625747680664 L -4.835000038146973 -29.589000701904297 L -4.833587646484375 -29.6046085357666 L -4.828999996185303 -29.628999710083008 L -4.825473785400391 -29.670747756958008 L -4.818999767303467 -29.70800018310547 L -4.817807197570801 -29.724498748779297 L -4.814000129699707 -29.746999740600586 L -4.812357425689697 -29.772367477416992 L -4.809999942779541 -29.78700065612793 L -4.807447910308838 -29.82936668395996 L -4.802000045776367 -29.865999221801758 L -4.801202297210693 -29.882549285888672 L -4.797999858856201 -29.905000686645508 L -4.797333717346191 -29.920820236206055 L -4.794000148773193 -29.94499969482422 L -4.7925310134887695 -29.987476348876953 L -4.788000106811523 -30.02400016784668 L -4.78762149810791 -30.04078483581543 L -4.784999847412109 -30.062999725341797 L -4.784571170806885 -30.088966369628906 L -4.7829999923706055 -30.10300064086914 L -4.782660961151123 -30.1352481842041 L -4.7779998779296875 -30.18199920654297 L -4.778054237365723 -30.21824836730957 z" fill="none" stroke="rgb(255,0,0)" stroke-width="0.001mm" />
</svg>